<svg id="Layer_1" height="512" viewBox="0 0 512 512" width="512" xmlns="http://www.w3.org/2000/svg" data-name="Layer 1"><path d="m222.081 289.919q64.176 66.236 99.413 66.607l52.806-39.426a32.119 32.119 0 0 1 41.522 2.378q58.833 55.44 86.047 81.085a32.39 32.39 0 0 1 1.456 45.6l-53.232 57.014a9.435 9.435 0 0 1 -4.506 2.754q-127.887 36.291-295.087-144.431-180.723-167.2-144.431-295.083a9.435 9.435 0 0 1 2.754-4.506l57.013-53.232a32.391 32.391 0 0 1 45.6 1.456q25.647 27.213 81.085 86.047a32.119 32.119 0 0 1 2.379 41.518q-13.828 18.519-39.425 52.8.37 35.244 66.606 99.419z" fill="#2196f3" fill-rule="evenodd"/></svg>